<?xml version="1.0" encoding="UTF-8" standalone="no"?>
<svg
   xmlns:dc="http://purl.org/dc/elements/1.1/"
   xmlns:cc="http://creativecommons.org/ns#"
   xmlns:rdf="http://www.w3.org/1999/02/22-rdf-syntax-ns#"
   xmlns:svg="http://www.w3.org/2000/svg"
   xmlns="http://www.w3.org/2000/svg"
   id="svg22"
   version="1.1"
   viewBox="0 0 512 512"
   role="img"
   class="svg-inline--fa fa-tasks fa-w-16"
   data-icon="tasks"
   data-prefix="fas"
   aria-hidden="true">
  <metadata
     id="metadata28">
    <rdf:RDF>
      <cc:Work
         rdf:about="">
        <dc:format>image/svg+xml</dc:format>
        <dc:type
           rdf:resource="http://purl.org/dc/dcmitype/StillImage" />
        <dc:title></dc:title>
      </cc:Work>
    </rdf:RDF>
  </metadata>
  <defs
     id="defs26" />
  <g
     transform="matrix(0.34801487,0,0,0.34801487,60.016318,262.12558)"
     id="g34">
    <circle
       style="opacity:1;fill:#999999;fill-opacity:1;stroke:none;stroke-width:5;stroke-linecap:butt;stroke-linejoin:miter;stroke-miterlimit:4;stroke-dasharray:none;stroke-opacity:1;paint-order:normal"
       id="path30"
       cx="229.97681"
       cy="264.11713"
       r="137.92514" />
    <path
       d="m 213.55173,224.41715 h 98.5761 c 3.01204,0 5.47645,-2.4644 5.47645,-5.47645 v -13.69112 c 0,-3.01205 -2.46441,-5.47645 -5.47645,-5.47645 h -98.5761 c -3.01204,0 -5.47645,2.4644 -5.47645,5.47645 v 13.69112 c 0,3.01205 2.46441,5.47645 5.47645,5.47645 z m 0,54.7645 h 98.5761 c 3.01204,0 5.47645,-2.46441 5.47645,-5.47645 v -13.69113 c 0,-3.01205 -2.46441,-5.47645 -5.47645,-5.47645 h -98.5761 c -3.01204,0 -5.47645,2.4644 -5.47645,5.47645 v 13.69113 c 0,3.01204 2.46441,5.47645 5.47645,5.47645 z m 0,54.76449 h 98.5761 c 3.01204,0 5.47645,-2.4644 5.47645,-5.47645 v -13.69112 c 0,-3.01205 -2.46441,-5.47645 -5.47645,-5.47645 h -98.5761 c -3.01204,0 -5.47645,2.4644 -5.47645,5.47645 v 13.69112 c 0,3.01205 2.46441,5.47645 5.47645,5.47645 z m -49.28804,-28.75136 c -9.07037,0 -16.63472,7.35898 -16.63472,16.42935 0,9.07037 7.56435,16.42935 16.63472,16.42935 9.07037,0 16.42935,-7.35898 16.42935,-16.42935 0,-9.07037 -7.35898,-16.42935 -16.42935,-16.42935 z m 31.66072,-102.34115 -24.71248,24.71248 -5.33954,5.33954 c -1.6087,1.6087 -4.41538,1.6087 -6.02409,0 l -16.29244,-16.22399 c -1.60871,-1.6087 -1.60871,-4.21002 0,-5.81872 l 5.37377,-5.37377 c 1.60871,-1.60871 4.21002,-1.60871 5.81873,0 l 7.76971,7.56435 21.80311,-21.66621 c 1.60871,-1.6087 4.21002,-1.6087 5.81873,0 l 5.81873,5.64759 c 1.57448,1.60871 1.57448,4.21002 -0.0342,5.81873 z m 0,54.62758 -24.71248,24.71248 -5.37376,5.37377 c -1.60871,1.60871 -4.41539,1.60871 -6.0241,0 l -16.25821,-16.25821 c -1.60871,-1.60871 -1.60871,-4.21002 0,-5.81873 l 5.37377,-5.37376 c 1.60871,-1.60871 4.21002,-1.60871 5.81873,0 l 7.76971,7.56434 21.80311,-21.80311 c 1.60871,-1.60871 4.21002,-1.60871 5.81873,0 l 5.81873,5.81872 c 1.57448,1.57448 1.57448,4.1758 -0.0342,5.7845 z"
       id="path20"
       style="fill:currentColor;stroke-width:0.34227809" />
  </g>
</svg>
